<svg xmlns="http://www.w3.org/2000/svg" height="40" viewBox="0 96 960 960" width="40"><path d="M479.919 871.51q-17.809 0-30.543-12.814-12.733-12.814-12.733-30.624 0-17.809 12.814-30.671 12.814-12.862 30.624-12.862 17.809 0 30.543 12.894 12.733 12.893 12.733 30.814 0 17.816-12.814 30.539-12.814 12.724-30.624 12.724Zm0-252.153q-17.809 0-30.543-12.814-12.733-12.814-12.733-30.624 0-17.809 12.814-30.543 12.814-12.733 30.624-12.733 17.809 0 30.543 12.814 12.733 12.814 12.733 30.624 0 17.809-12.814 30.543-12.814 12.733-30.624 12.733Zm0-251.896q-17.809 0-30.543-12.894-12.733-12.893-12.733-30.814 0-17.816 12.814-30.539 12.814-12.724 30.624-12.724 17.809 0 30.543 12.814 12.733 12.814 12.733 30.624 0 17.809-12.814 30.671-12.814 12.862-30.624 12.862Z"/></svg>